<?xml version="1.0" encoding="UTF-8" standalone="no"?>
<svg
   xmlns:dc="http://purl.org/dc/elements/1.1/"
   xmlns:cc="http://creativecommons.org/ns#"
   xmlns:rdf="http://www.w3.org/1999/02/22-rdf-syntax-ns#"
   xmlns:svg="http://www.w3.org/2000/svg"
   xmlns="http://www.w3.org/2000/svg"
   xmlns:sodipodi="http://sodipodi.sourceforge.net/DTD/sodipodi-0.dtd"
   xmlns:inkscape="http://www.inkscape.org/namespaces/inkscape"
   version="1.1"
   id="svg2"
   inkscape:version="0.48.4 r9939"
   width="744.09448"
   height="235"
   sodipodi:docname="logo-arrow.svg">
  <sodipodi:namedview
     pagecolor="#ffffff"
     bordercolor="#666666"
     borderopacity="1"
     objecttolerance="10"
     gridtolerance="10"
     guidetolerance="10"
     inkscape:pageopacity="0"
     inkscape:pageshadow="2"
     inkscape:window-width="1600"
     inkscape:window-height="838"
     id="namedview27"
     showgrid="false"
     units="px"
     inkscape:zoom="1.2685914"
     inkscape:cx="250.25001"
     inkscape:cy="43.712856"
     inkscape:window-x="-8"
     inkscape:window-y="-8"
     inkscape:window-maximized="1"
     inkscape:current-layer="g15" />
  <title
     id="title4">aldream.net</title>
  <defs
     id="defs6">
    <linearGradient
       id="linearGradient3806"
       y2="96.277"
       gradientUnits="userSpaceOnUse"
       x2="1262.8"
       gradientTransform="translate(447.82539,0)"
       y1="20.268999"
       x1="1262.8">
      <stop
         stop-color="#FFF"
         offset="0"
         id="stop9" />
      <stop
         stop-color="#d8d8d8"
         offset="1"
         id="stop11" />
    </linearGradient>
  </defs>
  <metadata
     id="metadata13">
    <rdf:RDF>
      <cc:Work
         rdf:about="">
        <dc:format>image/svg+xml</dc:format>
        <dc:type
           rdf:resource="http://purl.org/dc/dcmitype/StillImage" />
        <dc:title>aldream.net</dc:title>
      </cc:Work>
    </rdf:RDF>
  </metadata>
  <g
     transform="translate(-1045.5247,63.84513)"
     id="g15">
    <path
       d="m 1344,168.74 c 0.4371,-1.4564 4.4551,-21.083 6.602,-32.248 17.689,-91.992 21.314,-148.1 10.217,-158.12 -2.069,-1.8693 -3.8816,-2.1986 -7.5074,-1.364 -5.2062,1.1984 -7.5275,1.4102 -108.09,9.8617 -37.527,3.1539 -70.24,5.9233 -72.695,6.1542 -9.049,0.85124 -6.6828,0.29336 4.6762,-1.1025 48.173,-5.9198 59.577,-7.3449 78.009,-9.7491 86.038,-11.223 121.19,-18.544 135.23,-28.165 4.6729,-3.2023 7.3085,-6.1895 10.777,-12.215 l 2.2023,-3.826 -0.2606,7.0144 c -0.1434,3.8579 -0.7288,24.04 -1.3011,44.85 -2.3934,87.043 -4.9084,174.26 -5.0283,174.38 -0.07,0.0707 -11.112,1.178 -24.537,2.4606 -13.424,1.2826 -25.336,2.4508 -26.471,2.5959 -1.8725,0.23964 -2.0407,0.19121 -1.8254,-0.52584 z m 119.98,-1.8996 c -14.007,-1.3726 -25.527,-2.5549 -25.599,-2.6274 -0.1223,-0.12224 -2.5937,-85.783 -5.0313,-174.39 -0.5726,-20.809 -1.1582,-40.992 -1.3016,-44.85 l -0.2606,-7.0144 2.2023,3.826 c 3.4684,6.0252 6.1039,9.0124 10.777,12.215 14.038,9.6203 49.193,16.942 135.23,28.165 18.432,2.4042 29.836,3.8294 78.008,9.7491 11.359,1.3959 13.725,1.9537 4.6763,1.1025 -2.4551,-0.23094 -35.168,-3.0003 -72.695,-6.1542 -100.56,-8.4515 -102.88,-8.6633 -108.09,-9.8617 -3.6257,-0.8346 -5.4382,-0.50528 -7.5073,1.364 -10.952,9.8946 -7.6933,63.33 9.371,153.66 2.0565,10.887 6.9738,35.147 7.4317,36.666 0.2796,0.9279 3.2093,1.1275 -27.214,-1.8538 z m -301.1,-173.27 c 0.4065,-0.1064 1.1717,-0.11026 1.7005,-0.00861 0.5288,0.10168 0.1962,0.18874 -0.739,0.19346 -0.9353,0.00476 -1.3679,-0.078479 -0.9615,-0.18488 z m 507.59,0 c 0.4065,-0.1064 1.1717,-0.11026 1.7005,-0.00861 0.5288,0.10168 0.1963,0.18874 -0.739,0.19346 -0.9353,0.00476 -1.3679,-0.078479 -0.9615,-0.18488 z"
       stroke-miterlimit="4"
       id="path17"
       inkscape:connector-curvature="0"
       style="fill:#000000;stroke:#ffffff;stroke-width:1.70045877;stroke-miterlimit:4;stroke-dasharray:none" />
    <path
       style="fill:#000000;stroke:#ffffff;stroke-width:1.70045877;stroke-linecap:round;stroke-linejoin:miter;stroke-miterlimit:4;stroke-dasharray:none;marker-start:none;marker-mid:none"
       d="m 1415.8,-21.611 c -32.262,0.46349 -63.432,19.274 -78.65,47.637 -13.72,24.679 -15.157,55.921 -3.2914,81.584 3.9003,8.6254 10.234,18.878 17.081,25.474 3.5016,-18.629 -0.261,-0.43499 3.5016,-18.629 -3.8579,-7.1519 -7.8009,-13.821 -10.139,-21.638 -4.262,-12.2 -5.6771,-25.719 -2.0217,-38.267 4.2362,-16.788 12.867,-33.153 26.623,-43.92 13.986,-10.513 31.179,-17.457 48.795,-17.842 16.951,0.27284 33.318,7.0891 47.095,16.646 13.184,9.6746 21.801,24.584 26.729,40.04 3.2987,10.669 4.2002,22.801 1.6205,33.821 -2.2517,10.85 -6.6619,21.474 -12.571,30.858 l 3.1316,17.223 c 2.6748,0.22492 4.171,-2.3303 4.91,-3.0583 19.497,-23.62 26.085,-57.451 16.212,-86.588 -9.2346,-28.77 -33.434,-52.102 -62.666,-59.941 -8.5618,-2.3893 -17.464,-3.5732 -26.36,-3.4024 z m -18.2,165.98 -0.435,16.205 c 8.4808,1.4609 17.514,1.8998 26.128,1.025 4.8668,-0.23245 9.9561,-0.66581 14.715,-1.7197 l -0.2901,-15.592 c -10.105,2.3623 -20.393,4.8108 -30.705,2.2512 -3.1852,-0.5307 -6.3037,-1.2597 -9.4123,-2.1702 z"
       stroke-miterlimit="4"
       id="path19"
       inkscape:connector-curvature="0" />
    <text
       style="font-size:15.46751404px;line-height:100%;letter-spacing:0px;word-spacing:0px;fill:url(#linearGradient3806);stroke:#000000;stroke-width:1"
       xml:space="preserve"
       transform="scale(0.82936188,1.2057463)"
       font-size="15.46751404px"
       y="100.40397"
       x="1710.365"
       id="text21"
       sodipodi:linespacing="100%"><tspan
         y="100.40397"
         x="1710.365"
         id="tspan23"
         style="letter-spacing:0px;fill:url(#linearGradient3806);stroke:#000000;stroke-width:1"><tspan
           style="font-size:116.00635529px;font-variant:normal;font-weight:bold;font-stretch:normal;text-align:center;letter-spacing:0px;text-anchor:middle;fill:url(#linearGradient3806);stroke:#000000;stroke-width:1.2889595;font-family:Traditional Arabic"
           font-weight="bold"
           font-size="116.00635529px"
           font-stretch="normal"
           font-variant="normal"
           y="100.40397"
           x="1710.365"
           id="tspan25"
           dx="0 0 0 0 5 0 0 0 0"
           dy="0 0 0 0 0 0 0 0 0">ALD<tspan
   style="letter-spacing:0px"
   id="tspan3029"
   dx="-5">R</tspan>EAM<tspan
   style="font-size:116.00635529px;font-style:normal;font-variant:normal;font-weight:bold;font-stretch:normal;text-align:center;line-height:0%;writing-mode:lr-tb;text-anchor:middle;font-family:Traditional Arabic;-inkscape-font-specification:Traditional Arabic Bold"
   id="tspan3031"
   dy="0"
   dx="0">.</tspan>NET</tspan></tspan></text>
  </g>
</svg>
